<svg width="26" height="27" viewBox="0 0 26 27" fill="none" xmlns="http://www.w3.org/2000/svg">
<path d="M23.7871 17.8931C23.7871 21.8289 21.4408 24.1752 17.5051 24.1752H16.2184C15.6237 24.1752 15.1371 23.6886 15.1371 23.0939V16.8551C15.1371 16.5632 15.375 16.3145 15.6669 16.3145L17.5699 16.2821C17.7213 16.2713 17.8511 16.1631 17.8835 16.0118L18.2619 13.9466C18.2944 13.752 18.143 13.5681 17.9375 13.5681L15.6345 13.6006C15.3317 13.6006 15.0939 13.3627 15.0831 13.0708L15.0398 10.4217C15.0398 10.2487 15.1804 10.0973 15.3642 10.0973L17.9592 10.0541C18.143 10.0541 18.2836 9.91352 18.2836 9.72971L18.2403 7.13468C18.2403 6.95087 18.0997 6.81032 17.9159 6.81032L14.9965 6.85358C13.2017 6.88602 11.7744 8.35651 11.8069 10.1514L11.8609 13.1248C11.8717 13.4276 11.6339 13.6655 11.3311 13.6763L10.0336 13.6979C9.8498 13.6979 9.70925 13.8384 9.70925 14.0222L9.74168 16.0766C9.74168 16.2605 9.88223 16.401 10.066 16.401L11.3636 16.3794C11.6663 16.3794 11.9042 16.6173 11.915 16.9092L12.0123 23.0723C12.0231 23.6778 11.5365 24.1752 10.931 24.1752H8.44417C4.50842 24.1752 2.16211 21.8289 2.16211 17.8823V8.83225C2.16211 4.8965 4.50842 2.55019 8.44417 2.55019H17.5051C21.4408 2.55019 23.7871 4.8965 23.7871 8.83225V17.8931Z" fill="white"/>
</svg>
