<svg width="27" height="27" viewBox="0 0 27 27" fill="none" xmlns="http://www.w3.org/2000/svg">
<path d="M18.0304 2.55019H8.96956C5.03381 2.55019 2.6875 4.89651 2.6875 8.83226V17.8823C2.6875 21.8289 5.03381 24.1752 8.96956 24.1752H18.0196C21.9554 24.1752 24.3017 21.8289 24.3017 17.8931V8.83226C24.3125 4.89651 21.9662 2.55019 18.0304 2.55019ZM13.5 17.5579C11.1861 17.5579 9.30475 15.6766 9.30475 13.3627C9.30475 11.0488 11.1861 9.16744 13.5 9.16744C15.8139 9.16744 17.6953 11.0488 17.6953 13.3627C17.6953 15.6766 15.8139 17.5579 13.5 17.5579ZM19.901 7.82669C19.8469 7.95644 19.7712 8.07538 19.6739 8.18351C19.5658 8.28082 19.4469 8.35651 19.3171 8.41057C19.1874 8.46463 19.0468 8.49707 18.9063 8.49707C18.6143 8.49707 18.344 8.38894 18.1386 8.18351C18.0413 8.07538 17.9656 7.95644 17.9115 7.82669C17.8574 7.69694 17.825 7.55638 17.825 7.41582C17.825 7.27526 17.8574 7.13469 17.9115 7.00494C17.9656 6.86438 18.0413 6.75626 18.1386 6.64813C18.3873 6.39944 18.7657 6.28051 19.1117 6.35619C19.1874 6.36701 19.2523 6.38863 19.3171 6.42107C19.382 6.44269 19.4469 6.47513 19.5118 6.51838C19.5658 6.55082 19.6199 6.60488 19.6739 6.64813C19.7712 6.75626 19.8469 6.86438 19.901 7.00494C19.9551 7.13469 19.9875 7.27526 19.9875 7.41582C19.9875 7.55638 19.9551 7.69694 19.901 7.82669Z" fill="white"/>
</svg>
