<svg width="20" height="20" viewBox="0 0 20 20" fill="none" xmlns="http://www.w3.org/2000/svg">
<g clip-path="url(#clip0_0_185)">
<path d="M5.07148 19.9293C3.88207 19.8752 3.23595 19.6772 2.80619 19.5096C2.23675 19.2879 1.83077 19.024 1.40339 18.5972C0.976016 18.1704 0.711505 17.7644 0.49098 17.195C0.323357 16.7652 0.12542 16.1191 0.0713288 14.9297C0.0118881 13.644 0 13.2582 0 10.0009C0 6.74354 0.0130769 6.35837 0.0707344 5.07148C0.124825 3.88207 0.323952 3.23714 0.490385 2.80619C0.712099 2.23675 0.97661 1.83077 1.4028 1.4028C1.82958 0.976016 2.23556 0.71091 2.8056 0.490385C3.23536 0.322763 3.88147 0.124825 5.07088 0.0707344C6.35718 0.0118881 6.74354 0 9.9997 0C13.2571 0 13.6422 0.0130769 14.9291 0.0707344C16.1185 0.124825 16.7635 0.323952 17.1944 0.490385C17.7638 0.71091 18.1698 0.976016 18.5972 1.4028C19.0246 1.82958 19.2879 2.23616 19.5096 2.8056C19.6772 3.23536 19.8752 3.88147 19.9293 5.07088C19.9881 6.35777 20 6.74295 20 10.0003C20 13.2565 19.9881 13.6428 19.9293 14.9297C19.8752 16.1191 19.676 16.7652 19.5096 17.195C19.2879 17.7644 19.024 18.1704 18.5972 18.5972C18.1704 19.024 17.7638 19.2879 17.1944 19.5096C16.7646 19.6772 16.1185 19.8752 14.9291 19.9293C13.6434 19.9881 13.2571 20 9.9997 20C6.74354 20 6.35718 19.9887 5.07148 19.9293Z" fill="#583EBC"/>
<path d="M5.07148 19.9293C3.88207 19.8752 3.23595 19.6772 2.80619 19.5096C2.23675 19.2879 1.83077 19.024 1.40339 18.5972C0.976016 18.1704 0.711505 17.7644 0.49098 17.195C0.323357 16.7652 0.12542 16.1191 0.0713288 14.9297C0.0118881 13.644 0 13.2582 0 10.0009C0 6.74354 0.0130769 6.35837 0.0707344 5.07148C0.124825 3.88207 0.323952 3.23714 0.490385 2.80619C0.712099 2.23675 0.97661 1.83077 1.4028 1.4028C1.82958 0.976016 2.23556 0.71091 2.8056 0.490385C3.23536 0.322763 3.88147 0.124825 5.07088 0.0707344C6.35718 0.0118881 6.74354 0 9.9997 0C13.2571 0 13.6422 0.0130769 14.9291 0.0707344C16.1185 0.124825 16.7635 0.323952 17.1944 0.490385C17.7638 0.71091 18.1698 0.976016 18.5972 1.4028C19.0246 1.82958 19.2879 2.23616 19.5096 2.8056C19.6772 3.23536 19.8752 3.88147 19.9293 5.07088C19.9881 6.35777 20 6.74295 20 10.0003C20 13.2565 19.9881 13.6428 19.9293 14.9297C19.8752 16.1191 19.676 16.7652 19.5096 17.195C19.2879 17.7644 19.024 18.1704 18.5972 18.5972C18.1704 19.024 17.7638 19.2879 17.1944 19.5096C16.7646 19.6772 16.1185 19.8752 14.9291 19.9293C13.6434 19.9881 13.2571 20 9.9997 20C6.74354 20 6.35718 19.9887 5.07148 19.9293Z" fill="#583EBC"/>
<g clip-path="url(#clip1_0_185)">
<path d="M11.3258 8.67417C12.058 9.4064 12.058 10.5936 11.3258 11.3258C10.5935 12.0581 9.40634 12.0581 8.67411 11.3258C7.94188 10.5936 7.94188 9.4064 8.67411 8.67417C9.40634 7.94194 10.5935 7.94194 11.3258 8.67417Z" fill="white"/>
<path d="M12.1875 5H7.8125C6.26159 5 5 6.26159 5 7.8125V12.1875C5 13.7384 6.26159 15 7.8125 15H12.1875C13.7384 15 15 13.7384 15 12.1875V7.8125C15 6.26159 13.7384 5 12.1875 5ZM10 12.5C8.62152 12.5 7.5 11.3788 7.5 10C7.5 8.62122 8.62152 7.5 10 7.5C11.3785 7.5 12.5 8.62122 12.5 10C12.5 11.3788 11.3785 12.5 10 12.5ZM12.8125 7.5C12.6399 7.5 12.5 7.36008 12.5 7.1875C12.5 7.01488 12.6399 6.875 12.8125 6.875C12.9851 6.875 13.125 7.01488 13.125 7.1875C13.125 7.36008 12.9851 7.5 12.8125 7.5Z" fill="white"/>
</g>
</g>
<defs>
<clipPath id="clip0_0_185">
<rect width="20" height="20" fill="white"/>
</clipPath>
<clipPath id="clip1_0_185">
<rect width="10" height="10" fill="white" transform="translate(5 5)"/>
</clipPath>
</defs>
</svg>
