<svg width="33" height="20" viewBox="0 0 33 20" fill="none" xmlns="http://www.w3.org/2000/svg">
<path d="M5.446 19.17C3.85133 19.17 2.36067 18.7107 0.974 17.792L2.196 14.568C2.88933 14.8107 3.47867 14.932 3.964 14.932C5.12533 14.932 5.706 14.2127 5.706 12.774V0.111999H11.296V12.774C11.296 14.7673 10.776 16.336 9.736 17.48C8.696 18.6067 7.266 19.17 5.446 19.17ZM14.6744 0.111999H22.4484C24.3204 0.111999 25.9757 0.484666 27.4144 1.23C28.8704 1.97533 29.997 3.01533 30.7944 4.35C31.609 5.68467 32.0164 7.21 32.0164 8.926C32.0164 10.7287 31.6177 12.3147 30.8204 13.684C30.0404 15.0533 28.9224 16.1193 27.4664 16.882C26.0277 17.6273 24.355 18 22.4484 18H14.6744V0.111999ZM22.1884 13.32C23.4884 13.32 24.4764 12.9127 25.1524 12.098C25.8457 11.266 26.1924 10.1913 26.1924 8.874C26.1924 7.626 25.8544 6.638 25.1784 5.91C24.5197 5.16467 23.523 4.792 22.1884 4.792H20.4204V13.32H22.1884Z" fill="#333333"/>
</svg>
