<svg width="126" height="26" viewBox="0 0 126 26" fill="none" xmlns="http://www.w3.org/2000/svg">
<path d="M18.9984 14.9967C18.7286 15.2582 18.6046 15.6363 18.6661 16.0071L19.5921 21.1321C19.6702 21.5665 19.4869 22.0061 19.1234 22.2571C18.7671 22.5175 18.2932 22.5488 17.9046 22.3405L13.2911 19.9342C13.1307 19.8488 12.9525 19.803 12.7702 19.7977H12.4879C12.39 19.8123 12.2942 19.8436 12.2067 19.8915L7.59211 22.3092C7.36399 22.4238 7.10565 22.4644 6.85253 22.4238C6.23586 22.3071 5.8244 21.7196 5.92544 21.0998L6.85253 15.9748C6.91399 15.6009 6.79003 15.2207 6.52024 14.955L2.75878 11.3092C2.44419 11.004 2.33482 10.5457 2.47857 10.1321C2.61815 9.71962 2.9744 9.41858 3.40461 9.35087L8.58169 8.59983C8.97544 8.5592 9.32128 8.31962 9.49836 7.96545L11.7796 3.28837C11.8338 3.1842 11.9036 3.08837 11.9879 3.00712L12.0817 2.9342C12.1307 2.88004 12.1869 2.83525 12.2494 2.79879L12.3629 2.75712L12.54 2.6842H12.9786C13.3702 2.72483 13.715 2.9592 13.8952 3.3092L16.2067 7.96545C16.3734 8.30608 16.6973 8.54254 17.0713 8.59983L22.2484 9.35087C22.6859 9.41337 23.0515 9.71545 23.1963 10.1321C23.3327 10.5498 23.215 11.0082 22.8942 11.3092L18.9984 14.9967Z" fill="#FFD53F"/>
<path d="M43.9984 14.9967C43.7286 15.2582 43.6046 15.6363 43.6661 16.0071L44.5921 21.1321C44.6702 21.5665 44.4869 22.0061 44.1234 22.2571C43.7671 22.5175 43.2932 22.5488 42.9046 22.3405L38.2911 19.9342C38.1307 19.8488 37.9525 19.803 37.7702 19.7977H37.4879C37.39 19.8123 37.2942 19.8436 37.2067 19.8915L32.5921 22.3092C32.364 22.4238 32.1057 22.4644 31.8525 22.4238C31.2359 22.3071 30.8244 21.7196 30.9254 21.0998L31.8525 15.9748C31.914 15.6009 31.79 15.2207 31.5202 14.955L27.7588 11.3092C27.4442 11.004 27.3348 10.5457 27.4786 10.1321C27.6182 9.71962 27.9744 9.41858 28.4046 9.35087L33.5817 8.59983C33.9754 8.5592 34.3213 8.31962 34.4984 7.96545L36.7796 3.28837C36.8338 3.1842 36.9036 3.08837 36.9879 3.00712L37.0817 2.9342C37.1307 2.88004 37.1869 2.83525 37.2494 2.79879L37.3629 2.75712L37.54 2.6842H37.9786C38.3702 2.72483 38.715 2.9592 38.8952 3.3092L41.2067 7.96545C41.3734 8.30608 41.6973 8.54254 42.0713 8.59983L47.2484 9.35087C47.6859 9.41337 48.0515 9.71545 48.1963 10.1321C48.3327 10.5498 48.215 11.0082 47.8942 11.3092L43.9984 14.9967Z" fill="#FFD53F"/>
<path d="M68.9984 14.9967C68.7286 15.2582 68.6046 15.6363 68.6661 16.0071L69.5921 21.1321C69.6702 21.5665 69.4869 22.0061 69.1234 22.2571C68.7671 22.5175 68.2932 22.5488 67.9046 22.3405L63.2911 19.9342C63.1307 19.8488 62.9525 19.803 62.7702 19.7977H62.4879C62.39 19.8123 62.2942 19.8436 62.2067 19.8915L57.5921 22.3092C57.364 22.4238 57.1057 22.4644 56.8525 22.4238C56.2359 22.3071 55.8244 21.7196 55.9254 21.0998L56.8525 15.9748C56.914 15.6009 56.79 15.2207 56.5202 14.955L52.7588 11.3092C52.4442 11.004 52.3348 10.5457 52.4786 10.1321C52.6182 9.71962 52.9744 9.41858 53.4046 9.35087L58.5817 8.59983C58.9754 8.5592 59.3213 8.31962 59.4984 7.96545L61.7796 3.28837C61.8338 3.1842 61.9036 3.08837 61.9879 3.00712L62.0817 2.9342C62.1307 2.88004 62.1869 2.83525 62.2494 2.79879L62.3629 2.75712L62.54 2.6842H62.9786C63.3702 2.72483 63.715 2.9592 63.8952 3.3092L66.2067 7.96545C66.3734 8.30608 66.6973 8.54254 67.0713 8.59983L72.2484 9.35087C72.6859 9.41337 73.0515 9.71545 73.1963 10.1321C73.3327 10.5498 73.215 11.0082 72.8942 11.3092L68.9984 14.9967Z" fill="#FFD53F"/>
<path d="M93.9984 14.9967C93.7286 15.2582 93.6046 15.6363 93.6661 16.0071L94.5921 21.1321C94.6702 21.5665 94.4869 22.0061 94.1234 22.2571C93.7671 22.5175 93.2932 22.5488 92.9046 22.3405L88.2911 19.9342C88.1307 19.8488 87.9525 19.803 87.7702 19.7977H87.4879C87.39 19.8123 87.2942 19.8436 87.2067 19.8915L82.5921 22.3092C82.364 22.4238 82.1057 22.4644 81.8525 22.4238C81.2359 22.3071 80.8244 21.7196 80.9254 21.0998L81.8525 15.9748C81.914 15.6009 81.79 15.2207 81.5202 14.955L77.7588 11.3092C77.4442 11.004 77.3348 10.5457 77.4786 10.1321C77.6182 9.71962 77.9744 9.41858 78.4046 9.35087L83.5817 8.59983C83.9754 8.5592 84.3213 8.31962 84.4984 7.96545L86.7796 3.28837C86.8338 3.1842 86.9036 3.08837 86.9879 3.00712L87.0817 2.9342C87.1307 2.88004 87.1869 2.83525 87.2494 2.79879L87.3629 2.75712L87.54 2.6842H87.9786C88.3702 2.72483 88.715 2.9592 88.8952 3.3092L91.2067 7.96545C91.3734 8.30608 91.6973 8.54254 92.0713 8.59983L97.2484 9.35087C97.6859 9.41337 98.0515 9.71545 98.1963 10.1321C98.3327 10.5498 98.215 11.0082 97.8942 11.3092L93.9984 14.9967Z" fill="#FFD53F"/>
<path d="M118.998 14.9967C118.729 15.2582 118.605 15.6363 118.666 16.0071L119.592 21.1321C119.67 21.5665 119.487 22.0061 119.123 22.2571C118.767 22.5175 118.293 22.5488 117.905 22.3405L113.291 19.9342C113.131 19.8488 112.953 19.803 112.77 19.7977H112.488C112.39 19.8123 112.294 19.8436 112.207 19.8915L107.592 22.3092C107.364 22.4238 107.106 22.4644 106.853 22.4238C106.236 22.3071 105.824 21.7196 105.925 21.0998L106.853 15.9748C106.914 15.6009 106.79 15.2207 106.52 14.955L102.759 11.3092C102.444 11.004 102.335 10.5457 102.479 10.1321C102.618 9.71962 102.974 9.41858 103.405 9.35087L108.582 8.59983C108.975 8.5592 109.321 8.31962 109.498 7.96545L111.78 3.28837C111.834 3.1842 111.904 3.08837 111.988 3.00712L112.082 2.9342C112.131 2.88004 112.187 2.83525 112.249 2.79879L112.363 2.75712L112.54 2.6842H112.979C113.37 2.72483 113.715 2.9592 113.895 3.3092L116.207 7.96545C116.373 8.30608 116.697 8.54254 117.071 8.59983L122.248 9.35087C122.686 9.41337 123.051 9.71545 123.196 10.1321C123.333 10.5498 123.215 11.0082 122.894 11.3092L118.998 14.9967Z" stroke="#FFD53F"/>
</svg>
