<svg width="132" height="28" viewBox="0 0 132 28" fill="none" xmlns="http://www.w3.org/2000/svg">
<path d="M19.3316 15.9967C19.0619 16.2582 18.9379 16.6363 18.9994 17.0071L19.9254 22.1321C20.0035 22.5665 19.8202 23.0061 19.4566 23.2571C19.1004 23.5175 18.6264 23.5488 18.2379 23.3405L13.6244 20.9342C13.4639 20.8488 13.2858 20.803 13.1035 20.7977H12.8212C12.7233 20.8123 12.6275 20.8436 12.54 20.8915L7.92539 23.3092C7.69727 23.4238 7.43894 23.4644 7.18581 23.4238C6.56914 23.3071 6.15769 22.7196 6.25873 22.0998L7.18581 16.9748C7.24727 16.6009 7.12331 16.2207 6.85352 15.955L3.09206 12.3092C2.77748 12.004 2.6681 11.5457 2.81185 11.1321C2.95144 10.7196 3.30769 10.4186 3.73789 10.3509L8.91498 9.59983C9.30873 9.5592 9.65456 9.31962 9.83164 8.96545L12.1129 4.28837C12.1671 4.1842 12.2369 4.08837 12.3212 4.00712L12.415 3.9342C12.4639 3.88004 12.5202 3.83525 12.5827 3.79879L12.6962 3.75712L12.8733 3.6842H13.3119C13.7035 3.72483 14.0483 3.9592 14.2285 4.3092L16.54 8.96545C16.7066 9.30608 17.0306 9.54254 17.4046 9.59983L22.5816 10.3509C23.0191 10.4134 23.3848 10.7155 23.5296 11.1321C23.666 11.5498 23.5483 12.0082 23.2275 12.3092L19.3316 15.9967Z" fill="#FFD53F"/>
<path d="M48.8112 16.1901C48.4767 16.4725 48.323 16.8808 48.3992 17.2813L49.5475 22.8163C49.6444 23.2855 49.417 23.7602 48.9662 24.0313C48.5245 24.3126 47.9368 24.3463 47.455 24.1213L41.7342 21.5226C41.5353 21.4303 41.3144 21.3808 41.0884 21.3752H40.7383C40.6169 21.391 40.4981 21.4247 40.3896 21.4765L34.6675 24.0876C34.3846 24.2113 34.0643 24.2552 33.7504 24.2113C32.9857 24.0853 32.4755 23.4508 32.6008 22.7815L33.7504 17.2465C33.8266 16.8426 33.6729 16.432 33.3384 16.1451L28.6742 12.2076C28.2841 11.878 28.1484 11.383 28.3267 10.9363C28.4998 10.4908 28.9415 10.1657 29.475 10.0926L35.8946 9.28145C36.3828 9.23758 36.8117 8.97883 37.0312 8.59633L39.86 3.54508C39.9272 3.43258 40.0137 3.32908 40.1183 3.24133L40.2346 3.16258C40.2953 3.10408 40.365 3.0557 40.4425 3.01633L40.5833 2.97133L40.8029 2.89258H41.3467C41.8324 2.93645 42.2599 3.18958 42.4834 3.56758L45.3496 8.59633C45.5562 8.9642 45.958 9.21958 46.4217 9.28145L52.8412 10.0926C53.3837 10.1601 53.8371 10.4863 54.0167 10.9363C54.1859 11.3875 54.0399 11.8825 53.6421 12.2076L48.8112 16.1901Z" fill="#FFD53F"/>
<path d="M75.3316 15.9967C75.0619 16.2582 74.9379 16.6363 74.9994 17.0071L75.9254 22.1321C76.0035 22.5665 75.8202 23.0061 75.4566 23.2571C75.1004 23.5175 74.6264 23.5488 74.2379 23.3405L69.6244 20.9342C69.4639 20.8488 69.2858 20.803 69.1035 20.7977H68.8212C68.7233 20.8123 68.6275 20.8436 68.54 20.8915L63.9254 23.3092C63.6973 23.4238 63.4389 23.4644 63.1858 23.4238C62.5691 23.3071 62.1577 22.7196 62.2587 22.0998L63.1858 16.9748C63.2473 16.6009 63.1233 16.2207 62.8535 15.955L59.0921 12.3092C58.7775 12.004 58.6681 11.5457 58.8119 11.1321C58.9514 10.7196 59.3077 10.4186 59.7379 10.3509L64.915 9.59983C65.3087 9.5592 65.6546 9.31962 65.8316 8.96545L68.1129 4.28837C68.1671 4.1842 68.2369 4.08837 68.3212 4.00712L68.415 3.9342C68.4639 3.88004 68.5202 3.83525 68.5827 3.79879L68.6962 3.75712L68.8733 3.6842H69.3119C69.7035 3.72483 70.0483 3.9592 70.2285 4.3092L72.54 8.96545C72.7066 9.30608 73.0306 9.54254 73.4046 9.59983L78.5816 10.3509C79.0191 10.4134 79.3848 10.7155 79.5296 11.1321C79.666 11.5498 79.5483 12.0082 79.2275 12.3092L75.3316 15.9967Z" fill="#FFD53F"/>
<path d="M100.332 15.9967C100.062 16.2582 99.9379 16.6363 99.9994 17.0071L100.925 22.1321C101.004 22.5665 100.82 23.0061 100.457 23.2571C100.1 23.5175 99.6264 23.5488 99.2379 23.3405L94.6244 20.9342C94.4639 20.8488 94.2858 20.803 94.1035 20.7977H93.8212C93.7233 20.8123 93.6275 20.8436 93.54 20.8915L88.9254 23.3092C88.6973 23.4238 88.4389 23.4644 88.1858 23.4238C87.5691 23.3071 87.1577 22.7196 87.2587 22.0998L88.1858 16.9748C88.2473 16.6009 88.1233 16.2207 87.8535 15.955L84.0921 12.3092C83.7775 12.004 83.6681 11.5457 83.8119 11.1321C83.9514 10.7196 84.3077 10.4186 84.7379 10.3509L89.915 9.59983C90.3087 9.5592 90.6546 9.31962 90.8316 8.96545L93.1129 4.28837C93.1671 4.1842 93.2369 4.08837 93.3212 4.00712L93.415 3.9342C93.4639 3.88004 93.5202 3.83525 93.5827 3.79879L93.6962 3.75712L93.8733 3.6842H94.3119C94.7035 3.72483 95.0483 3.9592 95.2285 4.3092L97.54 8.96545C97.7066 9.30608 98.0306 9.54254 98.4046 9.59983L103.582 10.3509C104.019 10.4134 104.385 10.7155 104.53 11.1321C104.666 11.5498 104.548 12.0082 104.227 12.3092L100.332 15.9967Z" stroke="#FFD53F"/>
<path d="M125.332 15.9967C125.062 16.2582 124.938 16.6363 124.999 17.0071L125.925 22.1321C126.004 22.5665 125.82 23.0061 125.457 23.2571C125.1 23.5175 124.626 23.5488 124.238 23.3405L119.624 20.9342C119.464 20.8488 119.286 20.803 119.104 20.7977H118.821C118.723 20.8123 118.627 20.8436 118.54 20.8915L113.925 23.3092C113.697 23.4238 113.439 23.4644 113.186 23.4238C112.569 23.3071 112.158 22.7196 112.259 22.0998L113.186 16.9748C113.247 16.6009 113.123 16.2207 112.854 15.955L109.092 12.3092C108.777 12.004 108.668 11.5457 108.812 11.1321C108.951 10.7196 109.308 10.4186 109.738 10.3509L114.915 9.59983C115.309 9.5592 115.655 9.31962 115.832 8.96545L118.113 4.28837C118.167 4.1842 118.237 4.08837 118.321 4.00712L118.415 3.9342C118.464 3.88004 118.52 3.83525 118.583 3.79879L118.696 3.75712L118.873 3.6842H119.312C119.704 3.72483 120.048 3.9592 120.229 4.3092L122.54 8.96545C122.707 9.30608 123.031 9.54254 123.405 9.59983L128.582 10.3509C129.019 10.4134 129.385 10.7155 129.53 11.1321C129.666 11.5498 129.548 12.0082 129.227 12.3092L125.332 15.9967Z" stroke="#FFD53F"/>
</svg>
