<svg width="125" height="26" viewBox="0 0 125 26" fill="none" xmlns="http://www.w3.org/2000/svg">
<path d="M18.6642 15.3043C18.3944 15.5658 18.2704 15.9439 18.3319 16.3147L19.2579 21.4397C19.3361 21.8741 19.1527 22.3137 18.7892 22.5647C18.4329 22.8252 17.959 22.8564 17.5704 22.6481L12.9569 20.2418C12.7965 20.1564 12.6184 20.1106 12.4361 20.1054H12.1538C12.0559 20.1199 11.96 20.1512 11.8725 20.1991L7.25794 22.6168C7.02982 22.7314 6.77149 22.772 6.51836 22.7314C5.90169 22.6147 5.49024 22.0272 5.59128 21.4074L6.51836 16.2824C6.57982 15.9085 6.45586 15.5283 6.18607 15.2627L2.42461 11.6168C2.11003 11.3116 2.00065 10.8533 2.1444 10.4397C2.28399 10.0272 2.64024 9.7262 3.07044 9.65849L8.24753 8.90745C8.64128 8.86682 8.98711 8.62724 9.16419 8.27307L11.4454 3.59599C11.4996 3.49182 11.5694 3.39599 11.6538 3.31474L11.7475 3.24182C11.7965 3.18765 11.8527 3.14286 11.9152 3.1064L12.0288 3.06474L12.2059 2.99182H12.6444C13.0361 3.03245 13.3809 3.26682 13.5611 3.61682L15.8725 8.27307C16.0392 8.6137 16.3632 8.85015 16.7371 8.90745L21.9142 9.65849C22.3517 9.72099 22.7173 10.0231 22.8621 10.4397C22.9986 10.8574 22.8809 11.3158 22.56 11.6168L18.6642 15.3043Z" fill="#FFD53F"/>
<path d="M43.6642 15.3043C43.3944 15.5658 43.2704 15.9439 43.3319 16.3147L44.2579 21.4397C44.3361 21.8741 44.1527 22.3137 43.7892 22.5647C43.4329 22.8252 42.959 22.8564 42.5704 22.6481L37.9569 20.2418C37.7965 20.1564 37.6184 20.1106 37.4361 20.1054H37.1538C37.0559 20.1199 36.96 20.1512 36.8725 20.1991L32.2579 22.6168C32.0298 22.7314 31.7715 22.772 31.5184 22.7314C30.9017 22.6147 30.4902 22.0272 30.5913 21.4074L31.5184 16.2824C31.5798 15.9085 31.4559 15.5283 31.1861 15.2627L27.4246 11.6168C27.11 11.3116 27.0007 10.8533 27.1444 10.4397C27.284 10.0272 27.6402 9.7262 28.0704 9.65849L33.2475 8.90745C33.6413 8.86682 33.9871 8.62724 34.1642 8.27307L36.4454 3.59599C36.4996 3.49182 36.5694 3.39599 36.6538 3.31474L36.7475 3.24182C36.7965 3.18765 36.8527 3.14286 36.9152 3.1064L37.0288 3.06474L37.2059 2.99182H37.6444C38.0361 3.03245 38.3809 3.26682 38.5611 3.61682L40.8725 8.27307C41.0392 8.6137 41.3632 8.85015 41.7371 8.90745L46.9142 9.65849C47.3517 9.72099 47.7173 10.0231 47.8621 10.4397C47.9986 10.8574 47.8809 11.3158 47.56 11.6168L43.6642 15.3043Z" fill="#FFD53F"/>
<path d="M68.6642 15.3043C68.3944 15.5658 68.2704 15.9439 68.3319 16.3147L69.2579 21.4397C69.3361 21.8741 69.1527 22.3137 68.7892 22.5647C68.4329 22.8252 67.959 22.8564 67.5704 22.6481L62.9569 20.2418C62.7965 20.1564 62.6184 20.1106 62.4361 20.1054H62.1538C62.0559 20.1199 61.96 20.1512 61.8725 20.1991L57.2579 22.6168C57.0298 22.7314 56.7715 22.772 56.5184 22.7314C55.9017 22.6147 55.4902 22.0272 55.5913 21.4074L56.5184 16.2824C56.5798 15.9085 56.4559 15.5283 56.1861 15.2627L52.4246 11.6168C52.11 11.3116 52.0007 10.8533 52.1444 10.4397C52.284 10.0272 52.6402 9.7262 53.0704 9.65849L58.2475 8.90745C58.6413 8.86682 58.9871 8.62724 59.1642 8.27307L61.4454 3.59599C61.4996 3.49182 61.5694 3.39599 61.6538 3.31474L61.7475 3.24182C61.7965 3.18765 61.8527 3.14286 61.9152 3.1064L62.0288 3.06474L62.2059 2.99182H62.6444C63.0361 3.03245 63.3809 3.26682 63.5611 3.61682L65.8725 8.27307C66.0392 8.6137 66.3632 8.85015 66.7371 8.90745L71.9142 9.65849C72.3517 9.72099 72.7173 10.0231 72.8621 10.4397C72.9986 10.8574 72.8809 11.3158 72.56 11.6168L68.6642 15.3043Z" fill="#FFD53F"/>
<path d="M93.6642 15.3043C93.3944 15.5658 93.2704 15.9439 93.3319 16.3147L94.2579 21.4397C94.3361 21.8741 94.1527 22.3137 93.7892 22.5647C93.4329 22.8252 92.959 22.8564 92.5704 22.6481L87.9569 20.2418C87.7965 20.1564 87.6184 20.1106 87.4361 20.1054H87.1538C87.0559 20.1199 86.96 20.1512 86.8725 20.1991L82.2579 22.6168C82.0298 22.7314 81.7715 22.772 81.5184 22.7314C80.9017 22.6147 80.4902 22.0272 80.5913 21.4074L81.5184 16.2824C81.5798 15.9085 81.4559 15.5283 81.1861 15.2627L77.4246 11.6168C77.11 11.3116 77.0007 10.8533 77.1444 10.4397C77.284 10.0272 77.6402 9.7262 78.0704 9.65849L83.2475 8.90745C83.6413 8.86682 83.9871 8.62724 84.1642 8.27307L86.4454 3.59599C86.4996 3.49182 86.5694 3.39599 86.6538 3.31474L86.7475 3.24182C86.7965 3.18765 86.8527 3.14286 86.9152 3.1064L87.0288 3.06474L87.2059 2.99182H87.6444C88.0361 3.03245 88.3809 3.26682 88.5611 3.61682L90.8725 8.27307C91.0392 8.6137 91.3632 8.85015 91.7371 8.90745L96.9142 9.65849C97.3517 9.72099 97.7173 10.0231 97.8621 10.4397C97.9986 10.8574 97.8809 11.3158 97.56 11.6168L93.6642 15.3043Z" fill="#FFD53F"/>
<path d="M118.664 15.3043C118.394 15.5658 118.27 15.9439 118.332 16.3147L119.258 21.4397C119.336 21.8741 119.153 22.3137 118.789 22.5647C118.433 22.8252 117.959 22.8564 117.57 22.6481L112.957 20.2418C112.796 20.1564 112.618 20.1106 112.436 20.1054H112.154C112.056 20.1199 111.96 20.1512 111.873 20.1991L107.258 22.6168C107.03 22.7314 106.771 22.772 106.518 22.7314C105.902 22.6147 105.49 22.0272 105.591 21.4074L106.518 16.2824C106.58 15.9085 106.456 15.5283 106.186 15.2627L102.425 11.6168C102.11 11.3116 102.001 10.8533 102.144 10.4397C102.284 10.0272 102.64 9.7262 103.07 9.65849L108.248 8.90745C108.641 8.86682 108.987 8.62724 109.164 8.27307L111.445 3.59599C111.5 3.49182 111.569 3.39599 111.654 3.31474L111.748 3.24182C111.796 3.18765 111.853 3.14286 111.915 3.1064L112.029 3.06474L112.206 2.99182H112.644C113.036 3.03245 113.381 3.26682 113.561 3.61682L115.873 8.27307C116.039 8.6137 116.363 8.85015 116.737 8.90745L121.914 9.65849C122.352 9.72099 122.717 10.0231 122.862 10.4397C122.999 10.8574 122.881 11.3158 122.56 11.6168L118.664 15.3043Z" fill="#FFD53F"/>
</svg>
