<svg width="27" height="27" viewBox="0 0 27 27" fill="none" xmlns="http://www.w3.org/2000/svg">
<path d="M24.528 12.7248C24.1604 6.45352 18.4622 1.62035 11.899 2.7016C7.37936 3.44766 3.75718 7.11308 3.05437 11.6327C2.6435 14.2493 3.18414 16.7254 4.36271 18.769L3.40038 22.3479C3.18413 23.1588 3.93017 23.8941 4.7303 23.667L8.25518 22.6939C9.85543 23.6346 11.726 24.1752 13.7263 24.1752C19.8246 24.1752 24.8848 18.8014 24.528 12.7248ZM19.0136 17.385C18.9163 17.5796 18.7974 17.7634 18.646 17.9364C18.3757 18.2283 18.0837 18.4446 17.7593 18.5743C17.435 18.7149 17.0782 18.7798 16.6997 18.7798C16.1483 18.7798 15.5536 18.65 14.9373 18.3797C14.3102 18.1094 13.6939 17.7526 13.0776 17.3093C12.4505 16.8551 11.8666 16.347 11.3043 15.7955C10.7421 15.2333 10.2447 14.6386 9.79054 14.0223C9.34723 13.4059 8.99043 12.7896 8.73093 12.1733C8.47143 11.557 8.3417 10.9623 8.3417 10.4001C8.3417 10.0325 8.40657 9.67565 8.53632 9.35128C8.66607 9.01609 8.87152 8.71335 9.16346 8.44303C9.50946 8.09703 9.88787 7.93484 10.2879 7.93484C10.4393 7.93484 10.5907 7.96728 10.7312 8.03215C10.8718 8.09703 11.0016 8.19434 11.0989 8.3349L12.3531 10.1081C12.4504 10.2487 12.5261 10.3676 12.5694 10.4866C12.6234 10.6055 12.6451 10.7136 12.6451 10.8218C12.6451 10.9515 12.6018 11.0813 12.5261 11.211C12.4504 11.3408 12.3531 11.4705 12.2234 11.6003L11.8125 12.0328C11.7476 12.0976 11.726 12.1625 11.726 12.249C11.726 12.2923 11.7368 12.3355 11.7476 12.3788C11.7692 12.422 11.7801 12.4545 11.7909 12.4869C11.8882 12.6707 12.0612 12.8978 12.299 13.1789C12.5477 13.46 12.8073 13.752 13.0884 14.0331C13.3803 14.325 13.6615 14.5845 13.9534 14.8332C14.2345 15.0711 14.4724 15.2333 14.6562 15.3306C14.6886 15.3414 14.7211 15.363 14.7535 15.3738C14.7968 15.3954 14.84 15.3955 14.8941 15.3955C14.9914 15.3955 15.0563 15.363 15.1212 15.2982L15.532 14.8873C15.6725 14.7467 15.8023 14.6494 15.9213 14.5845C16.051 14.5088 16.1699 14.4656 16.3105 14.4656C16.4186 14.4656 16.5268 14.4872 16.6457 14.5413C16.7646 14.5953 16.8944 14.6602 17.0241 14.7575L18.819 16.0334C18.9596 16.1307 19.0569 16.2497 19.1217 16.3794C19.1758 16.52 19.2083 16.6497 19.2083 16.8011C19.1434 16.9849 19.1001 17.1903 19.0136 17.385Z" fill="white"/>
</svg>
